#Comment line ignore any data following # character 
#Hierarchical Translation and Rotation (.htr) file 
[Header]	
#Header keywords are followed by a single value 
FileType HTR		#Single word string
DataType HTRS		#Translation followed by rotation and scale data
FileVersion 1		#integer
NumSegments 64		#integer
NumFrames 3		#integer
DataFrameRate 30		#integer, data frame rate in this file
EulerRotationOrder ZYX
CalibrationUnits mm
RotationUnits Degrees
GlobalAxisofGravity Y
BoneLengthAxis Y
ScaleFactor 1.00
[SegmentNames&Hierarchy]
#CHILD	PARENT
Pinger_Root GLOBAL
Pelvis Pinger_Root
L_Hip Pelvis
R_Hip Pelvis
Rear_Leg01 Pelvis
Spine1 Pelvis
L_Leg01 L_Hip
L_Leg02 L_Leg01
L_Leg03 L_Leg02
L_Foot L_Leg03
L_Toe1_01 L_Foot
L_Toe2_01 L_Foot
L_Toe3_01 L_Foot
planeAlignerLeft L_Foot
L_Toe1_02 L_Toe1_01
L_Toe1_03 L_Toe1_02
L_Toe2_02 L_Toe2_01
L_Toe2_03 L_Toe2_02
L_Toe3_02 L_Toe3_01
L_Toe3_03 L_Toe3_02
planeLockWeightLeft planeAlignerLeft
R_Leg01 R_Hip
R_Leg02 R_Leg01
R_Leg03 R_Leg02
R_Foot R_Leg03
planeAlignerRight R_Foot
R_Toe1_01 R_Foot
R_Toe2_01 R_Foot
R_Toe3_01 R_Foot
planeLockWeightRight planeAlignerRight
R_Toe1_02 R_Toe1_01
R_Toe1_03 R_Toe1_02
R_Toe2_02 R_Toe2_01
R_Toe2_03 R_Toe2_02
R_Toe3_02 R_Toe3_01
R_Toe3_03 R_Toe3_02
Rear_Leg02 Rear_Leg01
Rear_Leg03 Rear_Leg02
Rear_Leg04 Rear_Leg03
Rear_Foot Rear_Leg04
planeAlignerCenter Rear_Foot
Rear_Toe1_01 Rear_Foot
Rear_Toe2_01 Rear_Foot
Rear_Toe3_01 Rear_Foot
planeLockWeightCenter planeAlignerCenter
Rear_Toe1_02 Rear_Toe1_01
Rear_Toe1_03 Rear_Toe1_02
Rear_Toe2_02 Rear_Toe2_01
Rear_Toe2_03 Rear_Toe2_02
Rear_Toe3_02 Rear_Toe3_01
Rear_Toe3_03 Rear_Toe3_02
Back_Bone Spine1
Head Spine1
Motor_Bone Back_Bone
Ping_Mechanism Back_Bone
BN_LookIK Head
bottomMouth Head
L_Mouth01 Head
L_mouthFront Head
mouthGun Head
R_Mouth01 Head
R_mouthFront Head
TopMouth Head
weapon_bone Head
[BasePosition]
#SegmentName Tx, Ty, Tz, Rx, Ry, Rz, BoneLength
Pinger_Root 0.000000 0.000000 0.000000 -90.000000 0.000000 0.000000 10.000000 
Pelvis 0.000000 0.000000 0.000000 0.000000 0.000000 0.000000 10.000000 
L_Hip 0.000000 0.000000 0.000000 0.000000 0.000000 0.000000 10.000000 
R_Hip 0.000000 0.000000 0.000000 0.000000 0.000000 0.000000 10.000000 
Rear_Leg01 0.000000 0.000000 0.000000 0.000000 0.000000 0.000000 10.000000 
Spine1 0.000000 0.000000 0.000000 0.000000 0.000000 0.000000 10.000000 
L_Leg01 0.000000 0.000000 0.000000 0.000000 0.000000 0.000000 10.000000 
L_Leg02 0.000000 0.000000 0.000000 0.000000 0.000000 0.000000 10.000000 
L_Leg03 0.000000 0.000000 0.000000 0.000000 0.000000 0.000000 10.000000 
L_Foot 0.000000 0.000000 0.000000 0.000000 0.000000 0.000000 10.000000 
L_Toe1_01 0.000000 0.000000 0.000000 0.000000 0.000000 0.000000 10.000000 
L_Toe2_01 0.000000 0.000000 0.000000 0.000000 0.000000 0.000000 10.000000 
L_Toe3_01 0.000000 0.000000 0.000000 0.000000 0.000000 0.000000 10.000000 
planeAlignerLeft 0.000000 0.000000 0.000000 0.000000 0.000000 0.000000 10.000000 
L_Toe1_02 0.000000 0.000000 0.000000 0.000000 0.000000 0.000000 10.000000 
L_Toe1_03 0.000000 0.000000 0.000000 0.000000 0.000000 0.000000 10.000000 
L_Toe2_02 0.000000 0.000000 0.000000 0.000000 0.000000 0.000000 10.000000 
L_Toe2_03 0.000000 0.000000 0.000000 0.000000 0.000000 0.000000 10.000000 
L_Toe3_02 0.000000 0.000000 0.000000 0.000000 0.000000 0.000000 10.000000 
L_Toe3_03 0.000000 0.000000 0.000000 0.000000 0.000000 0.000000 10.000000 
planeLockWeightLeft 0.000000 0.000000 0.000000 0.000000 0.000000 0.000000 10.000000 
R_Leg01 0.000000 0.000000 0.000000 0.000000 0.000000 0.000000 10.000000 
R_Leg02 0.000000 0.000000 0.000000 0.000000 0.000000 0.000000 10.000000 
R_Leg03 0.000000 0.000000 0.000000 0.000000 0.000000 0.000000 10.000000 
R_Foot 0.000000 0.000000 0.000000 0.000000 0.000000 0.000000 10.000000 
planeAlignerRight 0.000000 0.000000 0.000000 0.000000 0.000000 0.000000 10.000000 
R_Toe1_01 0.000000 0.000000 0.000000 0.000000 0.000000 0.000000 10.000000 
R_Toe2_01 0.000000 0.000000 0.000000 0.000000 0.000000 0.000000 10.000000 
R_Toe3_01 0.000000 0.000000 0.000000 0.000000 0.000000 0.000000 10.000000 
planeLockWeightRight 0.000000 0.000000 0.000000 0.000000 0.000000 0.000000 10.000000 
R_Toe1_02 0.000000 0.000000 0.000000 0.000000 0.000000 0.000000 10.000000 
R_Toe1_03 0.000000 0.000000 0.000000 0.000000 0.000000 0.000000 10.000000 
R_Toe2_02 0.000000 0.000000 0.000000 0.000000 0.000000 0.000000 10.000000 
R_Toe2_03 0.000000 0.000000 0.000000 0.000000 0.000000 0.000000 10.000000 
R_Toe3_02 0.000000 0.000000 0.000000 0.000000 0.000000 0.000000 10.000000 
R_Toe3_03 0.000000 0.000000 0.000000 0.000000 0.000000 0.000000 10.000000 
Rear_Leg02 0.000000 0.000000 0.000000 0.000000 0.000000 0.000000 10.000000 
Rear_Leg03 0.000000 0.000000 0.000000 0.000000 0.000000 0.000000 10.000000 
Rear_Leg04 0.000000 0.000000 0.000000 0.000000 0.000000 0.000000 10.000000 
Rear_Foot 0.000000 0.000000 0.000000 0.000000 0.000000 0.000000 10.000000 
planeAlignerCenter 0.000000 0.000000 0.000000 0.000000 0.000000 0.000000 10.000000 
Rear_Toe1_01 0.000000 0.000000 0.000000 0.000000 0.000000 0.000000 10.000000 
Rear_Toe2_01 0.000000 0.000000 0.000000 0.000000 0.000000 0.000000 10.000000 
Rear_Toe3_01 0.000000 0.000000 0.000000 0.000000 0.000000 0.000000 10.000000 
planeLockWeightCenter 0.000000 0.000000 0.000000 0.000000 0.000000 0.000000 10.000000 
Rear_Toe1_02 0.000000 0.000000 0.000000 0.000000 0.000000 0.000000 10.000000 
Rear_Toe1_03 0.000000 0.000000 0.000000 0.000000 0.000000 0.000000 10.000000 
Rear_Toe2_02 0.000000 0.000000 0.000000 0.000000 0.000000 0.000000 10.000000 
Rear_Toe2_03 0.000000 0.000000 0.000000 0.000000 0.000000 0.000000 10.000000 
Rear_Toe3_02 0.000000 0.000000 0.000000 0.000000 0.000000 0.000000 10.000000 
Rear_Toe3_03 0.000000 0.000000 0.000000 0.000000 0.000000 0.000000 10.000000 
Back_Bone 0.000000 0.000000 0.000000 0.000000 0.000000 0.000000 10.000000 
Head 0.000000 0.000000 0.000000 0.000000 0.000000 0.000000 10.000000 
Motor_Bone 0.000000 0.000000 0.000000 0.000000 0.000000 0.000000 10.000000 
Ping_Mechanism 0.000000 0.000000 0.000000 0.000000 0.000000 0.000000 10.000000 
BN_LookIK 0.000000 0.000000 0.000000 0.000000 0.000000 0.000000 10.000000 
bottomMouth 0.000000 0.000000 0.000000 0.000000 0.000000 0.000000 10.000000 
L_Mouth01 0.000000 0.000000 0.000000 0.000000 0.000000 0.000000 10.000000 
L_mouthFront 0.000000 0.000000 0.000000 0.000000 0.000000 0.000000 10.000000 
mouthGun 0.000000 0.000000 0.000000 0.000000 0.000000 0.000000 10.000000 
R_Mouth01 0.000000 0.000000 0.000000 0.000000 0.000000 0.000000 10.000000 
R_mouthFront 0.000000 0.000000 0.000000 0.000000 0.000000 0.000000 10.000000 
TopMouth 0.000000 0.000000 0.000000 0.000000 0.000000 0.000000 10.000000 
weapon_bone 0.000000 0.000000 0.000000 0.000000 0.000000 0.000000 10.000000 
#Beginning of Data. Separated by tabs
#Fr	Tx	Ty	Tz	Rx	Ry	Rz	SF
[Pinger_Root]
37 0.000000 0.000000 0.000000 -0.000075 -0.000000 -0.000020 0.000000
38 0.000000 0.000000 0.000000 -0.000075 -0.000000 -0.000020 0.000000
39 0.000000 0.000000 0.000000 -0.000075 -0.000000 -0.000020 0.000000
[Pelvis]
37 62.347294 918.020630 4457.020996 -100.450554 -85.897446 92.831398 4551.009766
38 67.287598 917.278625 4442.731445 -100.363472 -85.972015 92.748032 4536.936035
39 72.227844 916.536743 4428.441895 -100.363564 -85.972168 92.748131 4522.870117
[L_Hip]
37 5.766392 125.831482 872.656799 160.158691 -45.484905 122.312202 881.701050
38 5.766392 125.831482 872.656799 160.158691 -45.484905 122.312202 881.701050
39 5.766392 125.831482 872.656799 160.158691 -45.484913 122.312218 881.701050
[R_Hip]
37 5.765438 125.836372 -872.654907 38.174156 49.885098 125.774559 881.699829
38 5.765438 125.836372 -872.654907 38.087841 49.812687 125.703735 881.699829
39 5.765438 125.836372 -872.654907 38.087845 49.812698 125.703743 881.699829
[Rear_Leg01]
37 -192.298416 -925.602966 -0.001907 169.705170 2.070939 -159.868210 945.367432
38 -192.298416 -925.602966 -0.001907 169.693161 2.016049 -159.749924 945.367432
39 -192.298416 -925.602966 -0.001907 169.681046 1.961186 -159.631607 945.367432
[Spine1]
37 290.604584 5.007505 0.000477 7.265744 -0.619986 19.266817 290.647736
38 290.604584 5.007505 0.000477 7.265744 -0.619986 19.266817 290.647736
39 290.604584 5.007505 0.000477 7.265744 -0.619986 19.266817 290.647736
[L_Leg01]
37 761.932007 -0.002384 -0.069261 22.890461 -15.584265 -10.039123 761.932068
38 761.932007 -0.002384 -0.069261 22.838463 -15.656103 -9.465179 761.932068
39 761.932007 -0.002384 -0.069261 22.785698 -15.727433 -8.890974 761.932068
[L_Leg02]
37 1441.140503 -0.000954 -0.000715 2.468536 -0.182481 -127.745262 1441.140503
38 1441.140503 -0.000954 -0.000715 2.548548 -0.185079 -128.497040 1441.140503
39 1441.140503 -0.000954 -0.000715 2.628587 -0.186627 -129.248825 1441.140503
[L_Leg03]
37 1686.963989 -0.000715 -0.000954 -0.027413 0.010434 117.983238 1686.963989
38 1686.963989 -0.000715 -0.000954 -0.028679 0.012580 118.075531 1686.963989
39 1686.963989 -0.000715 -0.000954 -0.029941 0.014727 118.167793 1686.963989
[L_Foot]
37 3041.570068 -30.715107 11.297464 2.092574 13.125738 55.243519 3041.746094
38 3041.570068 -30.715107 11.297464 2.034485 13.109617 55.409042 3041.746094
39 3041.570068 -30.715107 11.297464 1.946200 13.076180 55.519150 3041.746094
[L_Toe1_01]
37 -188.216690 -224.732346 -21.137953 93.724174 -6.867776 -172.001007 293.899567
38 -188.216690 -224.732346 -21.137953 93.721642 -6.865141 -171.985718 293.899567
39 -188.216690 -224.732346 -21.137953 93.719101 -6.862507 -171.970444 293.899567
[L_Toe2_01]
37 200.746536 -219.926590 148.838394 -90.027710 -26.317253 -52.666393 332.896027
38 200.746536 -219.926590 148.838394 -90.025864 -26.314484 -52.672012 332.896027
39 200.746536 -219.926590 148.838394 -90.024010 -26.311710 -52.677650 332.896027
[L_Toe3_01]
37 188.832520 -219.859131 -191.078659 -99.788055 13.839008 -67.673027 347.140900
38 188.832520 -219.859131 -191.078659 -99.788055 13.839008 -67.673027 347.140900
39 188.832520 -219.859131 -191.078659 -99.788071 13.839012 -67.673042 347.140900
[planeAlignerLeft]
37 0.812531 -811.448792 -0.314951 0.000000 -90.000000 -90.001900 811.449280
38 0.812531 -811.448792 -0.314951 0.000000 -90.000000 -90.001900 811.449280
39 0.812531 -811.448792 -0.314951 0.000000 -90.000000 -90.001900 811.449280
[L_Toe1_02]
37 413.761139 0.000477 0.000000 0.001384 -26.003702 0.001384 413.761139
38 413.761139 0.000477 0.000000 0.001384 -26.008316 0.001384 413.761139
39 413.761139 0.000477 0.000000 0.001384 -26.012934 0.001384 413.761139
[L_Toe1_03]
37 464.317322 0.000358 -0.000089 0.003733 53.357246 0.003733 464.317322
38 464.317322 0.000358 -0.000089 0.003734 53.358177 0.003734 464.317322
39 464.317322 0.000358 -0.000089 0.003734 53.359112 0.003734 464.317322
[L_Toe2_02]
37 342.235809 -0.000477 0.000238 0.001188 -72.402016 0.001188 342.235809
38 342.235809 -0.000477 0.000238 0.001188 -72.402016 0.001188 342.235809
39 342.235809 -0.000477 0.000238 0.001188 -72.402016 0.001188 342.235809
[L_Toe2_03]
37 420.210846 -0.000715 0.000000 0.029090 85.375511 0.029090 420.210846
38 420.210846 -0.000715 0.000000 0.029090 85.375511 0.029090 420.210846
39 420.210846 -0.000715 0.000000 0.029090 85.375603 0.029090 420.210846
[L_Toe3_02]
37 329.270111 0.000954 0.000000 0.001178 -80.472923 0.001178 329.270111
38 329.270111 0.000954 0.000000 0.001178 -80.476616 0.001178 329.270111
39 329.270111 0.000954 0.000000 0.001178 -80.480370 0.001178 329.270111
[L_Toe3_03]
37 439.137451 -0.001907 0.000954 -179.995956 78.605698 -179.992447 439.137451
38 439.137451 -0.001907 0.000954 -179.995956 78.605721 -179.992447 439.137451
39 439.137451 -0.001907 0.000954 -179.995956 78.605751 -179.992447 439.137451
[planeLockWeightLeft]
37 -0.000954 0.000238 -0.000305 -0.011826 -0.004376 0.005620 0.001029
38 -0.000954 0.000238 -0.000305 -0.011826 -0.004376 0.005620 0.001029
39 -0.000954 0.000238 -0.000305 -0.011826 -0.004376 0.005620 0.001029
[R_Leg01]
37 761.455627 -0.001907 -0.000358 119.966278 -6.191649 36.840557 761.455688
38 761.455627 -0.001907 -0.000358 120.083946 -7.387282 36.123726 761.455688
39 761.455627 -0.001907 -0.000358 120.152443 -8.197727 35.593590 761.455688
[R_Leg02]
37 1441.140625 0.000000 -0.000238 -1.200793 -0.158306 -115.067963 1441.140625
38 1441.140625 0.000000 -0.000238 -1.279718 -0.184091 -117.339073 1441.140625
39 1441.140625 0.000000 -0.000238 -1.345498 -0.203192 -119.073219 1441.140625
[R_Leg03]
37 1686.963989 0.000954 0.001431 0.075827 -0.043471 131.234131 1686.963989
38 1686.963989 0.000954 0.001431 0.075800 -0.043518 131.304718 1686.963989
39 1686.963989 0.000954 0.001431 0.080226 -0.041631 131.521774 1686.963989
[R_Foot]
37 3041.560059 -30.531288 -11.204481 -0.446402 -24.730221 54.009563 3041.734131
38 3041.560059 -30.531288 -11.204481 -0.494095 -24.705786 54.796810 3041.734131
39 3041.560059 -30.531288 -11.204481 -0.512023 -24.677946 55.356743 3041.734131
[planeAlignerRight]
37 -0.635147 -812.270569 -0.364304 0.000000 -89.960434 -90.005180 812.270874
38 -0.635147 -812.270569 -0.364304 0.000000 -89.960434 -90.005180 812.270874
39 -0.635147 -812.270569 -0.364304 0.000000 -89.960434 -90.005180 812.270874
[R_Toe1_01]
37 -188.383347 -224.864899 21.052242 76.763535 -0.414595 -172.728699 294.101532
38 -188.383347 -224.864899 21.052242 76.763535 -0.414595 -172.728699 294.101532
39 -188.383347 -224.864899 21.052242 76.763535 -0.414595 -172.728699 294.101532
[R_Toe2_01]
37 200.637817 -220.002121 -148.787384 -91.743256 32.873833 -59.182163 332.857574
38 200.637817 -220.002121 -148.787384 -91.743256 32.873833 -59.182163 332.857574
39 200.637817 -220.002121 -148.787384 -91.743256 32.873833 -59.182163 332.857574
[R_Toe3_01]
37 188.606735 -220.092957 191.126343 -73.225998 -8.456855 -73.756157 347.192566
38 188.606735 -220.092957 191.126343 -73.225998 -8.456855 -73.756157 347.192566
39 188.606735 -220.092957 191.126343 -73.226006 -8.456861 -73.756165 347.192566
[planeLockWeightRight]
37 -0.000477 0.000000 0.000000 -0.011823 -0.004379 -0.000027 0.000477
38 -0.000477 0.000000 0.000000 -0.011823 -0.004379 -0.000027 0.000477
39 -0.000477 0.000000 0.000000 -0.011823 -0.004379 -0.000027 0.000477
[R_Toe1_02]
37 413.762085 0.000477 -0.000119 0.001394 -24.659479 0.001394 413.762085
38 413.762085 0.000477 -0.000119 0.001394 -24.659479 0.001394 413.762085
39 413.762085 0.000477 -0.000119 0.001394 -24.659479 0.001394 413.762085
[R_Toe1_03]
37 464.317810 0.000000 0.001088 0.006625 69.593369 0.006625 464.317810
38 464.317810 0.000000 0.001088 0.006625 69.593369 0.006625 464.317810
39 464.317810 0.000000 0.001088 0.006625 69.593369 0.006625 464.317810
[R_Toe2_02]
37 342.234741 -0.000954 0.000238 0.001197 -67.215302 0.001197 342.234741
38 342.234741 -0.000954 0.000238 0.001197 -67.215302 0.001197 342.234741
39 342.234741 -0.000954 0.000238 0.001197 -67.215332 0.001197 342.234741
[R_Toe2_03]
37 420.210846 0.000715 -0.000268 0.008231 73.605896 0.008231 420.210846
38 420.210846 0.000715 -0.000268 0.008231 73.605896 0.008231 420.210846
39 420.210846 0.000715 -0.000268 0.008231 73.605934 0.008231 420.210846
[R_Toe3_02]
37 329.270355 -0.000477 -0.000954 0.001184 -74.518616 0.001184 329.270355
38 329.270355 -0.000477 -0.000954 0.001184 -74.518616 0.001184 329.270355
39 329.270355 -0.000477 -0.000954 0.001184 -74.518646 0.001184 329.270355
[R_Toe3_03]
37 439.137939 0.000238 0.001431 -0.011587 83.300278 -0.008085 439.137939
38 439.137939 0.000238 0.001431 -0.011587 83.300278 -0.008085 439.137939
39 439.137939 0.000238 0.001431 -0.011587 83.300369 -0.008085 439.137939
[Rear_Leg02]
37 1162.777710 -0.029802 0.005960 0.584153 -2.925604 -122.667618 1162.777710
38 1162.777710 -0.029802 0.005960 0.611408 -2.920778 -123.255898 1162.777710
39 1162.777710 -0.029802 0.005960 0.638612 -2.915673 -123.844170 1162.777710
[Rear_Leg03]
37 607.192505 -0.013351 -0.073195 0.006478 -0.002102 64.172653 607.192505
38 607.192505 -0.013351 -0.073195 0.006474 -0.002112 64.346527 607.192505
39 607.192505 -0.013351 -0.073195 0.006471 -0.002122 64.520393 607.192505
[Rear_Leg04]
37 995.874512 -0.020504 -0.011921 -0.040460 -0.015314 57.809498 995.874573
38 995.874512 -0.020504 -0.011921 -0.040517 -0.015162 58.239773 995.874573
39 995.874512 -0.020504 -0.011921 -0.040574 -0.015010 58.670029 995.874573
[Rear_Foot]
37 3096.176270 -0.067472 -0.041425 -142.807800 85.791046 49.904476 3096.176270
38 3096.176270 -0.067472 -0.041425 -143.204376 85.806137 49.512863 3096.176270
39 3096.176270 -0.067472 -0.041425 -143.862717 85.745682 48.904377 3096.176270
[planeAlignerCenter]
37 0.350077 0.966311 -838.790894 0.000009 0.000003 -179.999985 838.791565
38 0.350077 0.966311 -838.790894 0.000009 0.000003 -179.999985 838.791565
39 0.350077 0.966311 -838.790894 0.000009 0.000003 -179.999985 838.791565
[Rear_Toe1_01]
37 0.653352 83.966492 -371.173737 0.290284 41.914120 90.414001 380.553192
38 0.653352 83.966492 -371.173737 0.289190 41.914127 90.413589 380.553192
39 0.653352 83.966492 -371.173737 0.288093 41.914139 90.413193 380.553192
[Rear_Toe2_01]
37 178.200760 -294.826019 -362.060547 -7.196267 34.406261 -66.271294 499.765686
38 178.200760 -294.826019 -362.060547 -7.196267 34.406261 -66.271294 499.765686
39 178.200760 -294.826019 -362.060547 -7.196270 34.406269 -66.271301 499.765686
[Rear_Toe3_01]
37 -153.359680 -308.780914 -362.060852 3.289418 33.518005 -112.540970 499.952881
38 -153.359680 -308.780914 -362.060852 3.289418 33.518005 -112.540970 499.952881
39 -153.359680 -308.780914 -362.060852 3.289419 33.518013 -112.540977 499.952881
[planeLockWeightCenter]
37 -0.000062 0.000238 0.000000 -0.011814 -0.004373 -0.000015 0.000246
38 -0.000062 0.000238 0.000000 -0.011814 -0.004373 -0.000015 0.000246
39 -0.000062 0.000238 0.000000 -0.011814 -0.004373 -0.000015 0.000246
[Rear_Toe1_02]
37 379.707825 0.194073 0.000477 -0.000242 -31.676744 0.006934 379.707855
38 379.707825 0.194073 0.000477 -0.000242 -31.676744 0.006934 379.707855
39 379.707825 0.194073 0.000477 -0.000242 -31.676752 0.006934 379.707855
[Rear_Toe1_03]
37 500.129700 0.165701 0.000119 -0.000103 51.902481 0.007295 500.129761
38 500.129700 0.165701 0.000119 -0.000103 51.902481 0.007295 500.129761
39 500.129700 0.165701 0.000119 -0.000103 51.902485 0.007295 500.129761
[Rear_Toe2_02]
37 340.494507 0.000238 -0.000954 0.001192 -69.854523 0.001192 340.494507
38 340.494507 0.000238 -0.000954 0.001192 -69.854523 0.001192 340.494507
39 340.494507 0.000238 -0.000954 0.001192 -69.854546 0.001192 340.494507
[Rear_Toe2_03]
37 433.103577 0.000000 0.000238 0.006696 69.810326 0.006696 433.103546
38 433.103577 0.000000 0.000238 0.006696 69.810326 0.006696 433.103546
39 433.103577 0.000000 0.000238 0.006696 69.810349 0.006696 433.103546
[Rear_Toe3_02]
37 340.494141 -0.000358 -0.000477 0.008288 -67.274704 -0.009460 340.494171
38 340.494141 -0.000358 -0.000477 0.008288 -67.274704 -0.009460 340.494171
39 340.494141 -0.000358 -0.000477 0.008288 -67.274727 -0.009460 340.494171
[Rear_Toe3_03]
37 433.103577 0.001431 -0.000238 -0.000972 65.958984 -0.004547 433.103546
38 433.103577 0.001431 -0.000238 -0.000972 65.958984 -0.004547 433.103546
39 433.103577 0.001431 -0.000238 -0.000972 65.959015 -0.004547 433.103546
[Back_Bone]
37 1312.175781 -701.934692 0.000954 1.462650 0.422859 -86.209534 1488.125488
38 1312.175781 -701.934692 0.000954 1.476249 0.180354 -85.890129 1488.125488
39 1312.175781 -701.934692 0.000954 1.475197 0.048236 -85.682419 1488.125488
[Head]
37 1406.159424 809.709290 0.001431 0.038889 -1.476592 6.330442 1622.625488
38 1406.159424 809.709290 0.001431 0.029098 -1.476423 6.707085 1622.625488
39 1406.159424 809.709290 0.001431 0.010349 -1.475933 7.396132 1622.625488
[Motor_Bone]
37 1158.364380 -417.834747 0.000477 -0.000105 0.000046 -105.985291 1231.419434
38 1158.364380 -417.834747 0.000477 -0.000105 0.000046 -105.985291 1231.419434
39 1158.364380 -417.834747 0.000477 -0.000105 0.000046 -105.985291 1231.419434
[Ping_Mechanism]
37 1234.336426 -441.684570 -0.234925 0.000103 -0.000053 82.120995 1310.981079
38 1234.047852 -441.714478 -0.269412 0.000103 -0.000053 82.120995 1310.719604
39 1233.759399 -441.744385 -0.303898 0.000103 -0.000053 82.120995 1310.458130
[BN_LookIK]
37 193.241119 1380.371704 -0.002861 0.000000 89.965736 -31.038179 1393.832153
38 193.241119 1380.371704 -0.002861 0.000000 89.965736 -31.038179 1393.832153
39 193.241119 1380.371704 -0.002861 0.000000 89.965736 -31.038179 1393.832153
[bottomMouth]
37 -435.092926 615.759399 -0.000954 -0.000022 0.000016 73.527184 753.966492
38 -435.092926 615.759399 -0.000954 -0.000022 0.000016 73.527184 753.966492
39 -435.092926 615.759399 -0.000954 -0.000022 0.000016 73.527184 753.966492
[L_Mouth01]
37 554.440979 7.658243 838.222046 150.204178 23.759130 109.605339 1005.027161
38 554.440979 7.658243 838.222046 150.204178 23.759130 109.605339 1005.027161
39 554.440979 7.658243 838.222046 150.204178 23.759130 109.605339 1005.027161
[L_mouthFront]
37 551.629089 934.514771 339.150421 0.000081 2.804060 79.119301 1136.941284
38 551.629089 934.514771 339.150421 0.000081 2.804060 79.119301 1136.941284
39 551.629089 934.514771 339.150421 0.000081 2.804060 79.119301 1136.941284
[mouthGun]
37 55.332661 1627.420898 0.000000 0.000023 0.000009 -11.038128 1628.361328
38 55.332661 1627.420898 0.000000 0.000023 0.000009 -11.038128 1628.361328
39 55.332661 1627.420898 0.000000 0.000023 0.000009 -11.038128 1628.361328
[R_Mouth01]
37 554.442383 7.659197 -838.223938 29.795891 -23.759109 109.605331 1005.029541
38 554.442383 7.659197 -838.223938 29.795891 -23.759109 109.605331 1005.029541
39 554.442383 7.659197 -838.223938 29.795891 -23.759109 109.605331 1005.029541
[R_mouthFront]
37 551.629089 934.514282 -339.151367 0.000029 -2.803930 79.119133 1136.941162
38 551.629089 934.514282 -339.151367 0.000029 -2.803930 79.119133 1136.941162
39 551.629089 934.514282 -339.151367 0.000029 -2.803930 79.119133 1136.941162
[TopMouth]
37 461.269867 -56.106091 -0.008583 -0.000059 -0.000268 92.025169 464.669525
38 461.269867 -56.106091 -0.008583 -0.000059 -0.000268 92.025169 464.669525
39 461.269867 -56.106091 -0.008583 -0.000059 -0.000268 92.025169 464.669525
[weapon_bone]
37 -987.239868 1448.372803 0.001431 0.000000 89.965736 -31.038221 1752.833740
38 -987.239868 1448.372803 0.001431 0.000000 89.965736 -31.038221 1752.833740
39 -987.239868 1448.372803 0.001431 0.000000 89.965736 -31.038221 1752.833740
